<svg xmlns="http://www.w3.org/2000/svg" xmlns:xlink="http://www.w3.org/1999/xlink" xmlns:fi="http://pattern.flaticon.com/" x="0" y="0" width="700" height="350" viewBox="0 0 700 350"><rect x="0px" y="0px" width="100%" height="100%" opacity="0.9" fill="#6f87be"/><defs><g transform="matrix(0.18944168090820312 0 0 0.18944168090820312 88.42947568073242 118.80483199954665)" id="L1_0"><path d="m171.089844 187.722656c19.449218-8.9375 40.253906-14.566406 61.554687-16.652344l-14.945312-133.605468c-1.644531-15.402344-11.765625-28.589844-26.214844-34.164063s-30.804687-2.597656-42.367187 7.707031c-11.558594 10.304688-16.386719 26.214844-12.503907 41.207032zm0 0"/><path d="m366.394531 52.222656c3.90625-15-.910156-30.921875-12.476562-41.242187-11.5625-10.320313-27.929688-13.300781-42.390625-7.71875-14.460938 5.582031-24.578125 18.789062-26.207032 34.203125l-14.894531 133.667968c21.296875 2.054688 42.109375 7.621094 61.59375 16.464844zm0 0"/><path d="m152.703125 295.882812c0 4.960938-4.023437 8.980469-8.984375 8.980469s-8.980469-4.019531-8.980469-8.980469c0-4.960937 4.019531-8.984374 8.980469-8.984374s8.984375 4.023437 8.984375 8.984374zm0 0"/><path d="m503.015625 466.332031c-.167969 0-4.769531-8.882812-46.507813-18.289062l-4.628906 12.621093c-1.757812 4.585938-6.875 6.910157-11.484375 5.214844-4.609375-1.695312-7.003906-6.777344-5.375-11.414062l9.882813-26.945313-13.746094-3.332031c-3.191406-.675781-5.769531-3.027344-6.726562-6.148438-.960938-3.121093-.152344-6.515624 2.109374-8.867187 2.261719-2.351563 5.621094-3.292969 8.777344-2.457031l15.890625 3.78125 9.351563-25.472656-10.257813-2.453126c-4.761719-1.207031-7.671875-6.015624-6.53125-10.796874 1.144531-4.777344 5.914063-7.75 10.707031-6.671876l11.507813 2.746094c3.214844-20.089844-9.632813-39.253906-29.4375-43.914062-1.875-.433594-3.777344-.730469-5.695313-.898438-.195312 0-.386718 0-.582031-.046875-17.90625-1.4375-34.417969 9.726563-39.757812 26.878907l28.976562 6.90625c4.433594 1.050781 7.378907 5.253906 6.851563 9.78125-.527344 4.523437-4.359375 7.9375-8.917969 7.941406-.703125 0-1.40625-.082032-2.089844-.242188l-27.667969-6.601562-3.171874 26.945312 15.847656 3.773438c4.433594 1.050781 7.375 5.253906 6.847656 9.78125-.527344 4.523437-4.359375 7.9375-8.914062 7.941406-.707032 0-1.40625-.085938-2.09375-.25l-13.804688-3.289062-5.164062 43.898437c-.328126 3.226563-2.371094 6.027344-5.34375 7.324219-2.972657 1.296875-6.414063.890625-9.003907-1.0625-2.589843-1.953125-3.925781-5.148438-3.492187-8.363282l11.675781-99.167968c3.023437-25.40625 22.601563-45.6875 47.886719-49.601563-25.726563-70.335937-92.53125-117.21875-167.425782-117.492187-47.882812-.015625-93.714843 19.4375-126.964843 53.898437-33.988281 34.808594-52.910157 81.59375-52.683594 130.242188v85.335937c0 4.960938-4.019531 8.980469-8.980469 8.980469-4.960937 0-8.984375-4.019531-8.984375-8.980469v-11.121094c-49.402343 10.121094-53.894531 20.210938-53.894531 20.308594 4.078125 12.550782 91.621094 35.722656 251.507812 35.722656 159.890626 0 247.40625-23.171874 251.507813-36.144531zm-359.296875-143.503906c-14.882812 0-26.945312-12.0625-26.945312-26.945313 0-14.882812 12.0625-26.949218 26.945312-26.949218s26.949219 12.066406 26.949219 26.949218c0 14.882813-12.066407 26.945313-26.949219 26.945313zm62.878906 62.878906h-17.964844c-4.960937 0-8.984374-4.023437-8.984374-8.984375 0-4.960937 4.023437-8.980468 8.984374-8.980468h17.964844c4.960938 0 8.980469 4.019531 8.980469 8.980468 0 4.960938-4.019531 8.984375-8.980469 8.984375zm0-53.894531c0 4.960938-4.023437 8.980469-8.984375 8.980469-4.960937 0-8.980469-4.019531-8.980469-8.980469-4.960937 0-8.984374-4.023438-8.984374-8.984375s4.023437-8.980469 8.984374-8.980469h17.964844c4.960938 0 8.980469 4.019532 8.980469 8.980469s-4.019531 8.984375-8.980469 8.984375zm44.910156-8.984375c-14.882812 0-26.945312-12.0625-26.945312-26.945313 0-14.882812 12.0625-26.949218 26.945312-26.949218 14.882813 0 26.949219 12.066406 26.949219 26.949218 0 14.882813-12.066406 26.945313-26.949219 26.945313zm0 0"/><path d="m260.492188 295.882812c0 4.960938-4.023438 8.980469-8.984376 8.980469-4.960937 0-8.980468-4.019531-8.980468-8.980469 0-4.960937 4.019531-8.984374 8.980468-8.984374 4.960938 0 8.984376 4.023437 8.984376 8.984374zm0 0"/><path d="m511.273438 301.324219c-1.957032-4.554688-7.230469-6.664063-11.785157-4.714844l-36.542969 15.65625 29.722657-47.554687c2.632812-4.214844 1.34375-9.765626-2.871094-12.394532-4.21875-2.628906-9.769531-1.34375-12.398437 2.875l-28.277344 45.308594v-40.546875c0-4.960937-4.019532-8.984375-8.980469-8.984375s-8.984375 4.023438-8.984375 8.984375v71.859375.222656c.03125 1.03125.246094 2.046875.628906 3 0 .089844 0 .1875.054688.289063.425781.675781.84375 1.355469 1.257812 2.039062.414063.484375.878906.929688 1.382813 1.320313.207031.167968.378906.375.601562.527344.773438.527343 1.621094.929687 2.515625 1.195312 1.863282.558594 3.859375.449219 5.652344-.304688.113281-.042968.242188 0 .359375-.070312l62.875-26.949219c4.566406-1.925781 6.710937-7.1875 4.789063-11.757812zm0 0"/></g><path d="M425.817,181.328C325.001,106.402,290.262,46.423,266.668,0.001l0,0c-0.002,0-0.002-0.001-0.002-0.001v0.001   c-23.592,46.422-58.333,106.402-159.149,181.327c-171.893,127.753-10.092,306.077,132.166,207.93   c-9.269,60.9-40.901,105.298-73.025,124.416v19.659h100.008h100.008v-19.656c-32.126-19.118-63.756-63.517-73.026-124.419   C435.905,487.407,597.709,309.081,425.817,181.328z" transform="matrix(0.11250007152557373 0 0 0.11250007152557373 211 16)" id="L1_4"/><g transform="matrix(0.27095242943391884 0.06209326529277552 -0.06209326529277552 0.27095242943391884 278.2776930741752 116.2019049875588)" id="L1_6"><path d="M107.122,162.377v32.376c0,2.761,2.239,5,5,5h18.117c2.761,0,5-2.239,5-5s-2.239-5-5-5h-13.117v-27.376   c0-2.761-2.239-5-5-5S107.122,159.616,107.122,162.377z"/><path d="M53.147,186.791c0,33.585,27.323,60.908,60.908,60.908s60.908-27.323,60.908-60.908c0-33.584-27.323-60.908-60.908-60.908   S53.147,153.206,53.147,186.791z M164.964,186.791c0,28.071-22.837,50.908-50.908,50.908s-50.908-22.837-50.908-50.908   s22.837-50.908,50.908-50.908S164.964,158.72,164.964,186.791z"/><path d="M249.215,89.373c0-8.923-7.259-16.183-16.183-16.183c-8.923,0-16.182,7.259-16.182,16.183   c0,7.094,4.596,13.123,10.961,15.302c-1.202,7.367-7.594,13.014-15.295,13.014c-8.555,0-15.516-6.96-15.516-15.611V44.137   C197.001,19.8,177.202,0,152.865,0c-22.763,0-41.553,17.322-43.889,39.476c-16.489,2.319-29.219,16.513-29.219,33.631   c0,11.431,5.682,21.555,14.363,27.715c-39.087,9.061-68.305,44.167-68.305,85.969c0,48.656,39.584,88.24,88.24,88.24   s88.24-39.584,88.24-88.24c0-41.98-29.469-77.203-68.806-86.079c8.594-6.17,14.208-16.241,14.208-27.604   c0-16.923-12.439-30.992-28.654-33.551C121.29,22.892,135.596,10,152.865,10c18.823,0,34.137,15.313,34.137,34.137v58.036   c0,14.07,11.446,25.516,25.516,25.516c13.18,0,24.058-10.046,25.38-22.883C244.45,102.735,249.215,96.601,249.215,89.373z    M117.064,96.84c-1.091,0.153-2.204,0.237-3.336,0.237c-1.133,0-2.245-0.085-3.336-0.237V77.93h6.672V96.84z M187.296,186.791   c0,40.385-32.855,73.24-73.24,73.24s-73.24-32.855-73.24-73.24s32.855-73.24,73.24-73.24S187.296,146.406,187.296,186.791z    M137.698,73.107c0,8.285-4.226,15.601-10.634,19.908V77.93c2.761,0,5-2.239,5-5s-2.239-5-5-5h-5h-16.672h-5c-2.761,0-5,2.239-5,5   s2.239,5,5,5v15.084c-6.408-4.307-10.634-11.623-10.634-19.908c0-13.217,10.753-23.97,23.971-23.97S137.698,59.89,137.698,73.107z    M233.033,95.555c-3.409,0-6.182-2.773-6.182-6.182c0-3.409,2.773-6.183,6.182-6.183c3.409,0,6.183,2.773,6.183,6.183   C239.215,92.782,236.442,95.555,233.033,95.555z"/></g><path d="m482.199219 197.914062c-14.988281-26.296874-50.15625-39.757812-85.535157-32.714843-36.496093 7.261719-94.511718 33.109375-122.445312 46.175781 20.777344-24.613281 58.042969-70.664062 73.882812-102.363281 15.125-31.136719 7.824219-68.519531-17.910156-91.675781-23.707031-20.925782-55.855468-22.902344-87.730468-5.960938-53.089844-22.804688-81.617188-6.117188-94.238282 6.496094-21.402344 21.40625-25.089844 58.882812-8.957031 91.140625 15.429687 30.839843 51.125 75.28125 72.179687 100.324219-29.269531-13.550782-83.386718-37.238282-118.0625-44.136719-35.382812-7.042969-70.546874 6.417969-85.535156 32.714843-8.835937 15.496094-17.394531 47.421876 18.621094 92.59375-7.917969 35.226563 2.480469 65.710938 28.925781 83.046876 29.125 18.703124 67.113281 15.875 93.152344-6.933594 23.949219-21.472656 54.664063-63.101563 73.765625-90.449219-2.363281 13.953125-5.84375 27.734375-9.285156 41.332031-15.308594 60.449219-32.664063 128.960938 61.496094 191.734375l23.667968-35.5c-69.066406-46.039062-59.011718-85.707031-43.800781-145.757812 4.878906-17.914063 8.714844-36.101563 11.488281-54.460938 18.933594 27.238281 50.875 70.933594 75.621094 93.109375 26.039062 22.808594 64.023438 25.636719 93.152344 6.933594 26.445312-17.332031 36.84375-47.820312 28.921875-83.046875 36.015625-45.179687 27.457031-77.105469 18.625-92.601563zm0 0" transform="matrix(0.11782306432723999 0 0 0.11782306432723999 300 249)" id="L1_7"/><path d="M192.478,60.573c-1.489-4.625-5.243-10.769-14.659-13.825c-2.275-0.738-4.692-1.108-7.199-1.108   c-19.522,0-42.752,23.88-54.443,37.534c-4.298-6.1-11.367-10.113-19.379-10.113c-8.015,0-15.078,4.019-19.387,10.113   C65.73,69.525,42.492,45.639,22.969,45.639c-2.506,0-4.93,0.376-7.2,1.108C6.354,49.804,2.6,55.954,1.104,60.573   c-4.061,12.614,4.008,28.18,9.079,36.219c-5.071,8.038-13.14,23.596-9.079,36.221c1.496,4.623,5.249,10.77,14.665,13.819   c2.27,0.745,4.693,1.111,7.2,1.111c19.523,0,42.755-23.886,54.447-37.533c4.297,6.1,11.367,10.113,19.381,10.113   c8.012,0,15.075-4.014,19.379-10.113c11.686,13.647,34.921,37.533,54.443,37.533c2.507,0,4.924-0.378,7.199-1.111   c9.416-3.05,13.17-9.203,14.659-13.819c4.061-12.613-4.008-28.183-9.079-36.221C188.464,88.752,196.532,73.193,192.478,60.573z    M96.791,104.723c-4.377,0-7.941-3.558-7.941-7.932c0-4.377,3.559-7.941,7.941-7.941c4.377,0,7.93,3.559,7.93,7.941   C104.727,101.166,101.168,104.723,96.791,104.723z" transform="matrix(0.3099445700645447 0 0 0.3099445700645447 31 22.999999659484672)" id="L1_8"/><g transform="matrix(0.12404657600540184 -0.053162820129702144 0.053162820129702144 0.12404657600540184 117.0610495803266 283.3644345525809)" id="L1_9"><path d="m256 109.714844c96.988281 0 164.570312-28.910156 164.570312-54.859375 0-.839844-.070312-1.671875-.15625-2.503907-3.5-25.042968-70.390624-52.351562-164.414062-52.351562s-160.914062 27.308594-164.472656 52.816406c0 .367188-.097656 1.199219-.097656 2.039063 0 25.949219 67.582031 54.859375 164.570312 54.859375zm-137.976562-62.410156c15.792968-10.734376 62.601562-29.019532 137.976562-29.019532 5.050781 0 9.144531 4.09375 9.144531 9.144532 0 5.046874-4.09375 9.140624-9.144531 9.140624-71.058594 0-114.578125 16.898438-127.660156 25.828126-2.695313 1.929687-6.222656 2.246093-9.21875.832031-2.996094-1.410157-4.996094-4.335938-5.222656-7.640625-.226563-3.304688 1.351562-6.472656 4.125-8.285156zm0 0"/><path d="m247.214844 356.480469c3.015625.089843 5.832031 0 8.785156.089843 5.886719 0 11.59375-.082031 17.308594-.355468 88.125-3.21875 147.261718-30.730469 147.261718-54.5v-213.578125c-31.660156 26.066406-99.582031 39.863281-164.570312 39.863281s-132.910156-13.796875-164.570312-39.863281v213.578125c0 25.023437 62.601562 53.027344 155.785156 54.765625zm-119.214844-210.195313c0-5.050781 4.09375-9.140625 9.144531-9.140625 5.046875 0 9.140625 4.089844 9.140625 9.140625v73.144532c0 5.046874-4.09375 9.140624-9.140625 9.140624-5.050781 0-9.144531-4.09375-9.144531-9.140624zm0 109.714844c0-5.050781 4.09375-9.144531 9.144531-9.144531 5.046875 0 9.140625 4.09375 9.140625 9.144531v18.285156c0 5.050782-4.09375 9.144532-9.140625 9.144532-5.050781 0-9.144531-4.09375-9.144531-9.144532zm0 0"/><path d="m247.214844 438.765625c3.015625.089844 5.832031 0 8.785156.089844 5.886719 0 11.59375-.082031 17.308594-.355469 88.125-3.21875 147.261718-30.730469 147.261718-54.5v-49.269531c-.738281.609375-1.582031 1.179687-2.359374 1.828125-.777344.648437-1.332032 1.023437-2.027344 1.515625-2.46875 1.773437-5.046875 3.503906-7.835938 5.15625l-.273437.148437c-2.742188 1.609375-5.679688 3.144532-8.703125 4.636719-.917969.4375-1.832032.859375-2.746094 1.277344-2.539062 1.21875-5.171875 2.375-7.898438 3.464843-.769531.3125-1.507812.640626-2.285156.914063-3.425781 1.355469-6.976562 2.644531-10.652344 3.867187-.867187.292969-1.773437.570313-2.660156.851563-2.96875.957031-6 1.871094-9.097656 2.742187l-3.371094.914063c-3.953125 1.0625-7.957031 2.085937-12.078125 3.019531l-.3125.070313c-4.050781.914062-8.226562 1.738281-12.371093 2.523437-1.234376.238282-2.476563.457032-3.730469.679688-3.417969.609375-6.871094 1.171875-10.359375 1.691406l-3.042969.464844c-4.375.609375-8.789063 1.164062-13.238281 1.664062l-3.171875.3125c-3.574219.363282-7.152344.683594-10.753907.957032l-3.886718.292968c-4.570313.300782-9.140625.566406-13.710938.730469-5.78125.277344-11.703125.367187-17.675781.367187h-.328125c-3.109375 0-6.117188 0-9.234375-.089843-4.816406-.09375-9.628906-.285157-14.4375-.53125-1.378906-.0625-2.742187-.148438-4.113281-.230469-3.753906-.21875-7.5-.484375-11.238282-.804688-1.160156-.089843-2.320312-.171874-3.472656-.28125-4.726562-.429687-9.425781-.914062-14.070312-1.507812-.914063-.109375-1.828125-.257812-2.742188-.375-3.785156-.496094-7.535156-1.039062-11.246094-1.628906l-3.976562-.648438c-3.933594-.664062-7.8125-1.382812-11.640625-2.15625l-1.828125-.367187c-4.34375-.914063-8.585938-1.894531-12.746094-2.933594l-3.355468-.914063c-3.179688-.84375-6.296876-1.722656-9.351563-2.644531-1.097656-.328125-2.203125-.65625-3.28125-.996093-3.886719-1.226563-7.671875-2.515626-11.300781-3.875-.476563-.183594-.914063-.386719-1.398438-.570313-3.164062-1.214844-6.199218-2.484375-9.144531-3.800781-.988281-.449219-1.964844-.914063-2.925781-1.363282-2.632813-1.21875-5.164063-2.507812-7.589844-3.867187-.648438-.355469-1.332031-.695313-1.964844-1.0625-2.917968-1.667969-5.664062-3.410156-8.226562-5.21875-.632813-.449219-1.207032-.914063-1.832032-1.363281-1.148437-.859375-2.347656-1.691406-3.417968-2.566406v48.976562c-.035156 25.023438 62.566406 53.027344 155.75 54.765625zm0 0"/><path d="m438.855469 341.84375v42.15625c0 43.820312-82.898438 69.777344-164.78125 72.769531-5.894531.28125-11.882813.375-18.074219.375-3.109375 0-6.117188 0-9.234375-.09375-86.226563-1.636719-173.621094-27.253906-173.621094-73.050781v-42.15625c-46.628906 19.078125-73.144531 44.078125-73.144531 69.585938 0 54.507812 117.230469 100.570312 256 100.570312s256-46.0625 256-100.570312c0-25.507813-26.515625-50.507813-73.144531-69.585938zm0 0"/></g></defs><g fi:class="KUsePattern"><pattern id="pattern_L1_0" width="350" height="350" patternUnits="userSpaceOnUse"><use xlink:href="#L1_0" x="-350" y="-350"/><use xlink:href="#L1_0" x="0" y="-350"/><use xlink:href="#L1_0" x="350" y="-350"/><use xlink:href="#L1_0" x="-350" y="0"/><use xlink:href="#L1_0" x="0" y="0"/><use xlink:href="#L1_0" x="350" y="0"/><use xlink:href="#L1_0" x="-350" y="350"/><use xlink:href="#L1_0" x="0" y="350"/><use xlink:href="#L1_0" x="350" y="350"/></pattern><rect x="0" y="0" width="100%" height="100%" fill="url(#pattern_L1_0)"/></g><g fi:class="KUsePattern"><pattern id="pattern_L1_4" width="350" height="350" patternUnits="userSpaceOnUse"><use xlink:href="#L1_4" x="-350" y="-350"/><use xlink:href="#L1_4" x="0" y="-350"/><use xlink:href="#L1_4" x="350" y="-350"/><use xlink:href="#L1_4" x="-350" y="0"/><use xlink:href="#L1_4" x="0" y="0"/><use xlink:href="#L1_4" x="350" y="0"/><use xlink:href="#L1_4" x="-350" y="350"/><use xlink:href="#L1_4" x="0" y="350"/><use xlink:href="#L1_4" x="350" y="350"/></pattern><rect x="0" y="0" width="100%" height="100%" fill="url(#pattern_L1_4)"/></g><g fi:class="KUsePattern"><pattern id="pattern_L1_6" width="350" height="350" patternUnits="userSpaceOnUse"><use xlink:href="#L1_6" x="-350" y="-350"/><use xlink:href="#L1_6" x="0" y="-350"/><use xlink:href="#L1_6" x="350" y="-350"/><use xlink:href="#L1_6" x="-350" y="0"/><use xlink:href="#L1_6" x="0" y="0"/><use xlink:href="#L1_6" x="350" y="0"/><use xlink:href="#L1_6" x="-350" y="350"/><use xlink:href="#L1_6" x="0" y="350"/><use xlink:href="#L1_6" x="350" y="350"/></pattern><rect x="0" y="0" width="100%" height="100%" fill="url(#pattern_L1_6)"/></g><g fi:class="KUsePattern"><pattern id="pattern_L1_7" width="350" height="350" patternUnits="userSpaceOnUse"><use xlink:href="#L1_7" x="-350" y="-350"/><use xlink:href="#L1_7" x="0" y="-350"/><use xlink:href="#L1_7" x="350" y="-350"/><use xlink:href="#L1_7" x="-350" y="0"/><use xlink:href="#L1_7" x="0" y="0"/><use xlink:href="#L1_7" x="350" y="0"/><use xlink:href="#L1_7" x="-350" y="350"/><use xlink:href="#L1_7" x="0" y="350"/><use xlink:href="#L1_7" x="350" y="350"/></pattern><rect x="0" y="0" width="100%" height="100%" fill="url(#pattern_L1_7)"/></g><g fi:class="KUsePattern"><pattern id="pattern_L1_8" width="350" height="350" patternUnits="userSpaceOnUse"><use xlink:href="#L1_8" x="-350" y="-350"/><use xlink:href="#L1_8" x="0" y="-350"/><use xlink:href="#L1_8" x="350" y="-350"/><use xlink:href="#L1_8" x="-350" y="0"/><use xlink:href="#L1_8" x="0" y="0"/><use xlink:href="#L1_8" x="350" y="0"/><use xlink:href="#L1_8" x="-350" y="350"/><use xlink:href="#L1_8" x="0" y="350"/><use xlink:href="#L1_8" x="350" y="350"/></pattern><rect x="0" y="0" width="100%" height="100%" fill="url(#pattern_L1_8)"/></g><g fi:class="KUsePattern"><pattern id="pattern_L1_9" width="350" height="350" patternUnits="userSpaceOnUse"><use xlink:href="#L1_9" x="-350" y="-350"/><use xlink:href="#L1_9" x="0" y="-350"/><use xlink:href="#L1_9" x="350" y="-350"/><use xlink:href="#L1_9" x="-350" y="0"/><use xlink:href="#L1_9" x="0" y="0"/><use xlink:href="#L1_9" x="350" y="0"/><use xlink:href="#L1_9" x="-350" y="350"/><use xlink:href="#L1_9" x="0" y="350"/><use xlink:href="#L1_9" x="350" y="350"/></pattern><rect x="0" y="0" width="100%" height="100%" fill="url(#pattern_L1_9)"/></g></svg>